<svg width="40" height="40" viewBox="0 0 40 40" fill="none" xmlns="http://www.w3.org/2000/svg">
<path d="M40 20C40 25.4875 37.7891 30.4586 34.2109 34.0727C32.1984 36.1047 7.80156 36.1047 5.78906 34.0727C2.21094 30.4586 0 25.4875 0 20C0 8.95469 8.95469 0 20 0C31.0453 0 40 8.95469 40 20Z" fill="#FBE280"/>
<path d="M39.9894 19.3574L29.3039 8.67188L22.2167 8.71414L12.6552 16.9327L30.7592 35.0367C32.5499 34.7941 33.8146 34.4728 34.2109 34.0727C37.7891 30.4586 40 25.4875 40 20C40 19.785 39.9962 19.5709 39.9894 19.3574Z" fill="#EFC859"/>
<path d="M15.6227 19.5496H24.3774V28.8339H15.6227V19.5496Z" fill="#EAA678"/>
<path d="M20 19.5496H24.3773V28.8339H20V19.5496Z" fill="#D38C5B"/>
<path d="M15.6227 25.7852H24.3774V35.0695H15.6227V25.7852Z" fill="#FFC397"/>
<path d="M20 25.7852H24.3773V35.0695H20V25.7852Z" fill="#EAA678"/>
<path d="M26.8946 11.8927C26.6033 7.47081 23.0265 5.83667 20 5.83667C16.9734 5.83667 13.3966 7.47081 13.1054 11.8927C12.3227 12.0441 11.7668 13.0706 11.8543 13.9006L11.9884 15.7894C12.0802 16.661 12.8464 17.2973 13.6908 17.2026L13.8364 17.1868C15.566 21.831 18.2783 22.3153 20 22.5872C21.7216 22.3153 24.434 21.8311 26.1636 17.1868L26.3092 17.2026C27.1535 17.2973 27.9197 16.661 28.0115 15.7894L28.1457 13.9006C28.2332 13.0706 27.6772 12.0441 26.8946 11.8927Z" fill="#FFC397"/>
<path d="M28.1457 13.9006L28.0115 15.7894C27.9197 16.661 27.1536 17.2973 26.3092 17.2026L26.1636 17.1868C25.5725 18.7722 24.8673 19.8734 24.1262 20.646C22.6972 22.1367 21.1341 22.4078 19.9999 22.5871V5.83667C23.0264 5.83667 26.6032 7.47081 26.8945 11.8927C27.6772 12.0441 28.2332 13.0706 28.1457 13.9006Z" fill="#EAA678"/>
<path d="M29.3043 8.67196C29.3043 8.67196 25.7664 4.42125 21.7322 3.46774C19.9065 3.03625 17.5606 3.58969 15.9957 5.24258C13.9337 5.4229 11.5052 7.07594 12.8974 13.4788L14.5147 15.2811L15.3408 11.0994C17.1672 11.6054 20.8697 12.3189 24.6372 11.207L25.442 15.2812L27.0593 13.4788C27.3477 12.1145 27.429 10.9851 27.3606 10.0481C28.0239 9.66774 28.6755 9.21375 29.3043 8.67196Z" fill="#AF5E22"/>
<path d="M27.3602 10.0485C27.4289 10.9853 27.3477 12.1142 27.0594 13.479L25.4422 15.2814L24.6367 11.2071C23.0328 11.6806 21.4406 11.8228 20 11.7907V3.34776C20.6008 3.29855 21.1891 3.33995 21.732 3.46808C25.7664 4.4212 29.3039 8.67198 29.3039 8.67198C28.6758 9.21417 28.0242 9.66808 27.3602 10.0485Z" fill="#89491D"/>
<path d="M27.0251 38.7305C26.1688 39.0523 25.2845 39.3164 24.3774 39.5187C22.9688 39.8344 21.504 40 20.0001 40C18.4962 40 17.0313 39.8344 15.6228 39.5187C14.7157 39.3164 13.8313 39.0523 12.9751 38.7305L15.6228 25.7852C16.6329 27.4047 18.3165 28.2141 20.0001 28.2141C21.6837 28.2141 23.3673 27.4047 24.3774 25.7852L27.0251 38.7305Z" fill="white"/>
<path d="M27.025 38.7305C26.1688 39.0523 25.2844 39.3164 24.3773 39.5187C22.9688 39.8344 21.5039 40 20 40V28.2141C21.6836 28.2141 23.3672 27.4047 24.3773 25.7852L27.025 38.7305Z" fill="#CECECE"/>
<path d="M15.6227 25.7852V39.5188C11.8242 38.6711 8.43281 36.7422 5.78906 34.0727V29.2523C5.78906 27.3375 7.34141 25.7852 9.25625 25.7852H15.6227Z" fill="#336B90"/>
<path d="M34.2109 29.2523V34.0727C31.5672 36.7422 28.1758 38.6711 24.3773 39.5188V25.7852H30.7437C32.6586 25.7852 34.2109 27.3375 34.2109 29.2523Z" fill="#205077"/>
<path d="M12.2915 32.7847V38.4585C11.4188 38.0944 10.5767 37.6687 9.77197 37.189V32.7847H12.2915Z" fill="#205077"/>
<path d="M30.2281 32.7847V37.189C29.4235 37.6687 28.5813 38.0944 27.7086 38.4585V32.7847H30.2281Z" fill="#163C66"/>
</svg>
